<svg width="141" height="24" viewBox="0 0 141 24" fill="none" xmlns="http://www.w3.org/2000/svg">
<path fill-rule="evenodd" clip-rule="evenodd" d="M39.8292 5.74414C37.9487 5.74414 36.3747 6.34955 35.1518 7.54575C33.914 8.7244 33.2862 10.2482 33.2862 12.0732C33.2862 13.8982 33.914 15.4219 35.1518 16.6006C36.3747 17.7968 37.9487 18.4022 39.8292 18.4022C41.7097 18.4022 43.2837 17.7939 44.5066 16.6006C45.7443 15.4219 46.3751 13.8982 46.3751 12.0732C46.3751 10.2482 45.7473 8.7244 44.5095 7.54575C43.2866 6.34955 41.7126 5.74414 39.8322 5.74414H39.8292ZM42.6529 14.837C41.915 15.5594 40.9688 15.925 39.8262 15.925C38.6836 15.925 37.7374 15.5594 36.9995 14.837C36.2616 14.1175 35.8897 13.1875 35.8897 12.0732C35.8897 10.9589 36.2646 10.0317 36.9995 9.30934C37.7374 8.58694 38.6836 8.22135 39.8262 8.22135C40.9688 8.22135 41.915 8.58694 42.6529 9.30934C43.3908 10.0317 43.7627 10.9589 43.7627 12.0732C43.7627 13.1875 43.3878 14.1146 42.6529 14.837Z" fill="#6613D0"/>
<path fill-rule="evenodd" clip-rule="evenodd" d="M81.515 5.74414C79.6346 5.74414 78.0605 6.34955 76.8376 7.54575C75.5999 8.7244 74.972 10.2482 74.972 12.0732C74.972 13.8982 75.5999 15.4219 76.8376 16.6006C78.0605 17.7968 79.6346 18.4022 81.515 18.4022C83.3955 18.4022 84.9695 17.7939 86.1924 16.6006C87.4302 15.4219 88.058 13.8982 88.058 12.0732C88.058 10.2482 87.4302 8.7244 86.1924 7.54575C84.9695 6.34955 83.3955 5.74414 81.515 5.74414ZM84.3417 14.837C83.6038 15.5594 82.6576 15.925 81.515 15.925C80.3725 15.925 79.4263 15.5594 78.6884 14.837C77.9505 14.1175 77.5785 13.1875 77.5785 12.0732C77.5785 10.9589 77.9534 10.0317 78.6884 9.30934C79.4263 8.58694 80.3725 8.22135 81.515 8.22135C82.6576 8.22135 83.6038 8.58694 84.3417 9.30934C85.0796 10.0317 85.4515 10.9589 85.4515 12.0732C85.4515 13.1875 85.0796 14.1146 84.3417 14.837Z" fill="#6613D0"/>
<path fill-rule="evenodd" clip-rule="evenodd" d="M96.4696 5.74414H93.0568V8.33249H90.4086V18.4051H93.0597V8.33834H96.4845C97.7014 8.33834 98.6893 9.30349 98.6893 10.4909V18.4022H101.34V10.5026C101.34 7.87624 99.1624 5.74414 96.4755 5.74414H96.4696Z" fill="#6613D0"/>
<path fill-rule="evenodd" clip-rule="evenodd" d="M104.167 5.74414H100.799V8.33541H104.179C105.396 8.33541 106.381 9.30056 106.381 10.488V18.3993H109.032V10.4997C109.032 7.87331 106.854 5.74121 104.167 5.74121V5.74414Z" fill="#6613D0"/>
<path fill-rule="evenodd" clip-rule="evenodd" d="M136.814 5.74414H133.835L130.345 10.175L126.846 5.74414H123.87L128.866 12.0732L123.87 18.4051H126.846L130.345 13.9713L133.835 18.4051H136.814L131.818 12.0732L136.814 5.74414Z" fill="#6613D0"/>
<path fill-rule="evenodd" clip-rule="evenodd" d="M71.973 14.72H71.9698L71.973 14.7231V14.72Z" fill="#6613D0"/>
<path fill-rule="evenodd" clip-rule="evenodd" d="M69.051 8.22134C70.012 8.22134 70.8511 8.49041 71.5384 9.02271C71.6991 9.14554 71.8389 9.283 71.9728 9.42631L73.5707 7.3995C73.5171 7.34978 73.4606 7.30007 73.407 7.25035C72.2168 6.2501 70.7529 5.73828 69.051 5.73828C67.1705 5.73828 65.5965 6.34369 64.3736 7.53989C63.1358 8.71854 62.505 10.2423 62.505 12.0673C62.505 13.8923 63.1328 15.4161 64.3706 16.5947C65.5935 17.7909 67.1675 18.3963 69.048 18.3963C70.747 18.3963 72.2139 17.8904 73.404 16.8843C73.4606 16.8346 73.5141 16.7848 73.5677 16.7351L71.9758 14.7142C71.8419 14.8545 71.7021 14.9891 71.5414 15.1119C70.8541 15.6442 70.015 15.9133 69.0539 15.9133C67.9143 15.9133 66.9652 15.5477 66.2273 14.8253C65.4894 14.1058 65.1174 13.1758 65.1174 12.0615C65.1174 10.9472 65.4923 10.02 66.2273 9.29763C66.9652 8.57523 67.9114 8.20964 69.0539 8.20964L69.051 8.22134Z" fill="#6613D0"/>
<path fill-rule="evenodd" clip-rule="evenodd" d="M28.9688 13.7139H28.9718V0H26.3505V13.6992C26.3505 16.2964 28.5047 18.4021 31.1588 18.4021H31.8282V15.8401H31.1439C29.9388 15.8401 28.9659 14.8867 28.9659 13.7139H28.9688Z" fill="#6613D0"/>
<path fill-rule="evenodd" clip-rule="evenodd" d="M60.3567 5.76465H57.7383V7.00179C56.7148 6.31449 55.4978 5.96353 54.0934 5.96353C52.2784 5.96353 50.7669 6.54262 49.5946 7.69202C48.4193 8.8385 47.8271 10.3155 47.8271 12.0908C47.8271 13.866 48.4222 15.3459 49.5946 16.4895C50.7699 17.6389 52.2784 18.218 54.0934 18.218C55.4948 18.218 56.7148 17.867 57.7383 17.1797V18.3935C57.7383 20.2945 56.3399 21.4351 53.9268 21.4351C51.96 21.4351 50.3979 20.2272 50.3979 20.2272C50.3979 20.2272 48.815 22.2833 48.7852 22.2716C50.2819 23.4532 51.969 23.9972 53.8732 23.9972C58.1757 23.9972 60.3567 21.9645 60.3567 18.1858V5.76465ZM56.7445 14.685C56.0513 15.3606 55.1616 15.7057 54.0934 15.7057C53.0252 15.7057 52.1326 15.3635 51.4423 14.685C50.749 14.0093 50.4009 13.1378 50.4009 12.0937C50.4009 11.0496 50.752 10.178 51.4423 9.5024C52.1326 8.8268 53.0252 8.48169 54.0934 8.48169C55.1616 8.48169 56.0542 8.82387 56.7445 9.5024C57.295 10.0405 57.6223 10.7015 57.7383 11.4736V12.7137C57.6253 13.4858 57.292 14.1497 56.7445 14.685V14.685Z" fill="#6613D0"/>
<path fill-rule="evenodd" clip-rule="evenodd" d="M121.883 7.38773C121.365 6.86128 120.746 6.4489 120.032 6.15643C119.318 5.84641 118.547 5.69141 117.72 5.69141C116.78 5.69141 115.905 5.85519 115.093 6.17983C114.298 6.48985 113.608 6.93732 113.025 7.52811C112.457 8.10135 112.01 8.7828 111.686 9.57247C111.362 10.3621 111.198 11.2366 111.198 12.1959C111.198 13.4009 111.481 14.4713 112.049 15.4014C112.635 16.3314 113.427 17.0655 114.432 17.6066C115.453 18.133 116.622 18.3963 117.934 18.3963C118.535 18.3963 119.142 18.3202 119.758 18.1652C120.389 17.9956 120.981 17.7704 121.532 17.4925C122.1 17.2147 122.579 16.89 122.969 16.5157L122.99 16.4981L121.695 14.7638L121.672 14.7843C121.044 15.3078 120.458 15.6675 119.913 15.8664C119.383 16.0653 118.806 16.1647 118.181 16.1647C117.298 16.1647 116.518 15.9951 115.846 15.6587C115.173 15.3224 114.652 14.8486 114.284 14.2373C114.01 13.7723 113.837 13.2488 113.769 12.6639H123.493L123.516 11.6168C123.531 10.7657 123.394 9.98485 123.103 9.27123C122.826 8.54298 122.421 7.9171 121.886 7.38773H121.883ZM120.907 10.7102H113.864C113.938 10.3797 114.045 10.0784 114.185 9.80644C114.489 9.19518 114.938 8.73601 115.527 8.43184C116.119 8.11012 116.848 7.94927 117.717 7.94927C118.262 7.94927 118.765 8.06333 119.229 8.29146C119.693 8.51958 120.077 8.83252 120.38 9.23028C120.684 9.62511 120.859 10.0755 120.907 10.5786V10.7072V10.7102Z" fill="#6613D0"/>
<path d="M18.6708 14.1553H14.4041V18.3493H18.6708V14.1553V14.1553Z" fill="#6613D0"/>
<path d="M4.26678 14.1553V4.71729L0 8.91421V14.1728C0 16.4804 1.90428 18.3522 4.2519 18.3522H9.60173L13.8685 14.1582H4.26678V14.1553Z" fill="#6613D0"/>
<path d="M14.401 4.194V13.632L18.6678 9.43797V0H9.06902L4.80225 4.194H14.401Z" fill="#FE8F1C"/>
<path d="M139.06 4.15015V4.39875H138.643V5.69146H138.328V4.39875H137.911V4.15015H139.063H139.06Z" fill="#6613D0"/>
<path d="M141 4.15015V5.69146H140.685V4.68829L140.265 5.69146H140.027L139.605 4.68829V5.69146H139.289V4.15015H139.646L140.146 5.29663L140.646 4.15015H141V4.15015Z" fill="#6613D0"/>
</svg>
